# xmcd CD database file
#
# Track frame offsets:
#	150
#	10140
#	24175
#	39699
#	54888
#	68350
#	85390
#	102356
#	119842
#	132262
#	146576
#	162721
#	178835
#	205460
#
# Disc length: 3104 seconds
#
# Revision: 0
# Processed by: cddbd v1.5.1PL2 Copyright (c) Steve Scherf et al.
# Submitted via: CDex 1.51
#
DISCID=c50c1e0e
DTITLE=LET GO - LET GO
DYEAR=1900
DGENRE=Rock
TTITLE0=Illuminati
TTITLE1=Spotlights
TTITLE2=Bombs Away
TTITLE3=Louise
TTITLE4=Run and Hide
TTITLE5=No Drug, No Alcohol
TTITLE6=120 B.P.M.
TTITLE7=Almost, Always Maybe
TTITLE8=Paper-Cuts
TTITLE9=Somewhere
TTITLE10=Resistance Is Futile
TTITLE11=Bright Eyes, No Brains
TTITLE12=Keep It Straight(Japanese Bonus Track)
TTITLE13=Data Track
EXTD=
EXTT0=
EXTT1=
EXTT2=
EXTT3=
EXTT4=
EXTT5=
EXTT6=
EXTT7=
EXTT8=
EXTT9=
EXTT10=
EXTT11=
EXTT12=
EXTT13=
PLAYORDER=
